G04 EAGLE Gerber RS-274X export*
G75*
%MOMM*%
%FSLAX34Y34*%
%LPD*%
%INTop Copper*%
%IPPOS*%
%AMOC8*
5,1,8,0,0,1.08239X$1,22.5*%
G01*
%ADD10R,3.000000X2.500000*%
%ADD11R,1.500000X1.300000*%
%ADD12P,1.429621X8X292.500000*%
%ADD13R,1.300000X1.500000*%
%ADD14R,1.488400X0.406800*%
%ADD15R,3.000000X3.000000*%
%ADD16C,1.950000*%
%ADD17C,0.304800*%
%ADD18C,1.270000*%
%ADD19C,0.609600*%
%ADD20C,2.540000*%
%ADD21C,6.096000*%
%ADD22C,0.406400*%
%ADD23C,2.286000*%
%ADD24C,3.556000*%
%ADD25C,1.350000*%
%ADD26C,1.500000*%

G36*
X141211Y10172D02*
X141211Y10172D01*
X141311Y10174D01*
X141383Y10192D01*
X141457Y10201D01*
X141552Y10234D01*
X141649Y10259D01*
X141715Y10293D01*
X141785Y10318D01*
X141870Y10373D01*
X141959Y10419D01*
X142016Y10467D01*
X142078Y10507D01*
X142148Y10579D01*
X142224Y10644D01*
X142268Y10704D01*
X142320Y10758D01*
X142372Y10844D01*
X142431Y10925D01*
X142461Y10993D01*
X142499Y11057D01*
X142530Y11153D01*
X142569Y11245D01*
X142583Y11318D01*
X142605Y11389D01*
X142613Y11489D01*
X142631Y11588D01*
X142627Y11662D01*
X142633Y11736D01*
X142618Y11836D01*
X142613Y11936D01*
X142593Y12007D01*
X142582Y12081D01*
X142544Y12174D01*
X142517Y12271D01*
X142480Y12336D01*
X142453Y12405D01*
X142396Y12487D01*
X142346Y12575D01*
X142281Y12651D01*
X142254Y12691D01*
X142227Y12715D01*
X142188Y12761D01*
X135475Y19474D01*
X130392Y28278D01*
X127761Y38097D01*
X127761Y48263D01*
X130392Y58082D01*
X135475Y66886D01*
X142664Y74075D01*
X151468Y79158D01*
X161287Y81789D01*
X171453Y81789D01*
X181272Y79158D01*
X190076Y74075D01*
X197265Y66886D01*
X202348Y58082D01*
X204979Y48263D01*
X204979Y38097D01*
X202348Y28278D01*
X197265Y19474D01*
X190552Y12761D01*
X190490Y12683D01*
X190420Y12610D01*
X190382Y12546D01*
X190335Y12488D01*
X190293Y12397D01*
X190241Y12311D01*
X190218Y12240D01*
X190187Y12173D01*
X190165Y12075D01*
X190135Y11979D01*
X190129Y11905D01*
X190113Y11832D01*
X190115Y11732D01*
X190107Y11632D01*
X190118Y11558D01*
X190119Y11484D01*
X190144Y11387D01*
X190158Y11287D01*
X190186Y11218D01*
X190204Y11146D01*
X190250Y11056D01*
X190287Y10963D01*
X190330Y10902D01*
X190364Y10836D01*
X190429Y10759D01*
X190486Y10677D01*
X190541Y10627D01*
X190590Y10571D01*
X190670Y10511D01*
X190745Y10444D01*
X190810Y10408D01*
X190870Y10363D01*
X190962Y10324D01*
X191050Y10275D01*
X191122Y10255D01*
X191190Y10225D01*
X191289Y10208D01*
X191385Y10180D01*
X191485Y10172D01*
X191533Y10164D01*
X191569Y10166D01*
X191629Y10161D01*
X521516Y10161D01*
X521542Y10164D01*
X521568Y10162D01*
X521715Y10184D01*
X521862Y10201D01*
X521887Y10209D01*
X521913Y10213D01*
X522051Y10268D01*
X522190Y10318D01*
X522212Y10332D01*
X522237Y10342D01*
X522358Y10427D01*
X522483Y10507D01*
X522501Y10526D01*
X522523Y10541D01*
X522622Y10651D01*
X522725Y10758D01*
X522739Y10780D01*
X522756Y10800D01*
X522828Y10930D01*
X522904Y11057D01*
X522912Y11082D01*
X522925Y11105D01*
X522965Y11248D01*
X523010Y11389D01*
X523012Y11415D01*
X523020Y11440D01*
X523039Y11684D01*
X523039Y404116D01*
X523036Y404142D01*
X523038Y404168D01*
X523016Y404315D01*
X522999Y404462D01*
X522991Y404487D01*
X522987Y404513D01*
X522932Y404650D01*
X522882Y404790D01*
X522868Y404812D01*
X522858Y404837D01*
X522773Y404958D01*
X522693Y405083D01*
X522674Y405101D01*
X522659Y405123D01*
X522549Y405222D01*
X522442Y405325D01*
X522420Y405339D01*
X522400Y405356D01*
X522270Y405428D01*
X522143Y405504D01*
X522118Y405512D01*
X522095Y405525D01*
X521952Y405565D01*
X521811Y405610D01*
X521785Y405612D01*
X521760Y405620D01*
X521516Y405639D01*
X336682Y405639D01*
X336632Y405634D01*
X336582Y405636D01*
X336460Y405614D01*
X336336Y405599D01*
X336289Y405582D01*
X336239Y405573D01*
X336125Y405524D01*
X336008Y405482D01*
X335966Y405455D01*
X335920Y405435D01*
X335820Y405360D01*
X335715Y405293D01*
X335680Y405257D01*
X335640Y405227D01*
X335560Y405132D01*
X335473Y405042D01*
X335447Y404999D01*
X335415Y404961D01*
X335358Y404850D01*
X335294Y404743D01*
X335279Y404695D01*
X335256Y404650D01*
X335226Y404530D01*
X335188Y404411D01*
X335184Y404361D01*
X335172Y404312D01*
X335170Y404188D01*
X335160Y404064D01*
X335168Y404014D01*
X335167Y403964D01*
X335193Y403842D01*
X335212Y403719D01*
X335230Y403672D01*
X335241Y403623D01*
X335295Y403511D01*
X335341Y403395D01*
X335369Y403354D01*
X335391Y403308D01*
X335468Y403211D01*
X335539Y403109D01*
X335577Y403075D01*
X335608Y403036D01*
X335706Y402959D01*
X335798Y402876D01*
X335842Y402851D01*
X335882Y402820D01*
X336100Y402709D01*
X341778Y400357D01*
X346807Y395328D01*
X349529Y388756D01*
X349529Y381644D01*
X346807Y375072D01*
X341778Y370043D01*
X335206Y367321D01*
X308594Y367321D01*
X302022Y370043D01*
X299485Y372580D01*
X299465Y372596D01*
X299448Y372616D01*
X299328Y372705D01*
X299212Y372797D01*
X299189Y372808D01*
X299168Y372824D01*
X299031Y372882D01*
X298897Y372946D01*
X298872Y372951D01*
X298848Y372962D01*
X298701Y372988D01*
X298557Y373019D01*
X298531Y373019D01*
X298505Y373023D01*
X298356Y373016D01*
X298208Y373013D01*
X298183Y373007D01*
X298157Y373005D01*
X298014Y372964D01*
X297870Y372928D01*
X297847Y372916D01*
X297822Y372909D01*
X297692Y372837D01*
X297560Y372769D01*
X297540Y372752D01*
X297517Y372739D01*
X297331Y372580D01*
X276799Y352048D01*
X276720Y351949D01*
X276636Y351855D01*
X276612Y351813D01*
X276582Y351775D01*
X276528Y351661D01*
X276467Y351550D01*
X276454Y351503D01*
X276433Y351460D01*
X276407Y351336D01*
X276372Y351215D01*
X276367Y351154D01*
X276360Y351119D01*
X276361Y351071D01*
X276353Y350971D01*
X276353Y277480D01*
X274883Y273932D01*
X262668Y261717D01*
X259120Y260247D01*
X258452Y260247D01*
X258426Y260244D01*
X258400Y260246D01*
X258253Y260224D01*
X258106Y260207D01*
X258081Y260199D01*
X258055Y260195D01*
X257917Y260140D01*
X257778Y260090D01*
X257756Y260076D01*
X257731Y260066D01*
X257610Y259981D01*
X257485Y259901D01*
X257467Y259882D01*
X257445Y259867D01*
X257346Y259757D01*
X257243Y259650D01*
X257229Y259628D01*
X257212Y259608D01*
X257140Y259478D01*
X257064Y259351D01*
X257056Y259326D01*
X257043Y259303D01*
X257003Y259160D01*
X256958Y259019D01*
X256956Y258993D01*
X256948Y258968D01*
X256929Y258724D01*
X256929Y242976D01*
X256932Y242950D01*
X256930Y242924D01*
X256952Y242777D01*
X256969Y242630D01*
X256977Y242605D01*
X256981Y242579D01*
X257036Y242441D01*
X257086Y242302D01*
X257100Y242280D01*
X257110Y242255D01*
X257195Y242134D01*
X257275Y242009D01*
X257294Y241991D01*
X257309Y241969D01*
X257419Y241870D01*
X257526Y241767D01*
X257548Y241753D01*
X257568Y241736D01*
X257698Y241664D01*
X257825Y241588D01*
X257850Y241580D01*
X257873Y241567D01*
X258016Y241527D01*
X258157Y241482D01*
X258183Y241480D01*
X258208Y241472D01*
X258452Y241453D01*
X273871Y241453D01*
X273996Y241467D01*
X274123Y241474D01*
X274169Y241487D01*
X274217Y241493D01*
X274336Y241535D01*
X274457Y241570D01*
X274500Y241594D01*
X274545Y241610D01*
X274651Y241679D01*
X274762Y241740D01*
X274808Y241780D01*
X274838Y241799D01*
X274871Y241834D01*
X274948Y241899D01*
X296604Y263555D01*
X296651Y263615D01*
X296706Y263668D01*
X296759Y263751D01*
X296821Y263828D01*
X296853Y263897D01*
X296894Y263961D01*
X296927Y264054D01*
X296969Y264143D01*
X296986Y264218D01*
X297011Y264290D01*
X297022Y264388D01*
X297043Y264484D01*
X297042Y264560D01*
X297050Y264636D01*
X297039Y264734D01*
X297037Y264832D01*
X297018Y264906D01*
X297009Y264982D01*
X296963Y265125D01*
X296952Y265170D01*
X296943Y265187D01*
X296934Y265215D01*
X294271Y271644D01*
X294271Y278756D01*
X296993Y285328D01*
X302022Y290357D01*
X308594Y293079D01*
X310332Y293079D01*
X310334Y293079D01*
X310336Y293079D01*
X310513Y293100D01*
X310678Y293119D01*
X310680Y293119D01*
X310682Y293120D01*
X310915Y293195D01*
X317757Y296029D01*
X351243Y296029D01*
X358899Y292858D01*
X385958Y265799D01*
X389129Y258143D01*
X389129Y250952D01*
X389132Y250926D01*
X389130Y250900D01*
X389152Y250753D01*
X389169Y250606D01*
X389177Y250581D01*
X389181Y250555D01*
X389236Y250417D01*
X389286Y250278D01*
X389300Y250256D01*
X389310Y250231D01*
X389395Y250110D01*
X389475Y249985D01*
X389494Y249967D01*
X389509Y249945D01*
X389619Y249846D01*
X389726Y249743D01*
X389748Y249729D01*
X389768Y249712D01*
X389898Y249640D01*
X390025Y249564D01*
X390050Y249556D01*
X390073Y249543D01*
X390216Y249503D01*
X390357Y249458D01*
X390383Y249456D01*
X390408Y249448D01*
X390652Y249429D01*
X453751Y249429D01*
X453852Y249440D01*
X453954Y249442D01*
X454025Y249460D01*
X454097Y249469D01*
X454193Y249503D01*
X454292Y249528D01*
X454380Y249570D01*
X454425Y249586D01*
X454456Y249606D01*
X454512Y249633D01*
X459900Y252743D01*
X466489Y254509D01*
X473311Y254509D01*
X479900Y252743D01*
X485808Y249332D01*
X490632Y244508D01*
X494043Y238600D01*
X495809Y232011D01*
X495809Y225189D01*
X494043Y218600D01*
X490632Y212692D01*
X485808Y207868D01*
X479900Y204457D01*
X473311Y202691D01*
X466489Y202691D01*
X459900Y204457D01*
X454512Y207567D01*
X454419Y207608D01*
X454330Y207657D01*
X454260Y207677D01*
X454193Y207706D01*
X454093Y207724D01*
X453995Y207752D01*
X453897Y207760D01*
X453850Y207768D01*
X453813Y207766D01*
X453751Y207771D01*
X390652Y207771D01*
X390626Y207768D01*
X390600Y207770D01*
X390453Y207748D01*
X390306Y207731D01*
X390281Y207723D01*
X390255Y207719D01*
X390117Y207664D01*
X389978Y207614D01*
X389956Y207600D01*
X389931Y207590D01*
X389810Y207505D01*
X389685Y207425D01*
X389667Y207406D01*
X389645Y207391D01*
X389546Y207281D01*
X389443Y207174D01*
X389429Y207152D01*
X389412Y207132D01*
X389340Y207002D01*
X389264Y206875D01*
X389256Y206850D01*
X389243Y206827D01*
X389203Y206684D01*
X389158Y206543D01*
X389156Y206517D01*
X389148Y206492D01*
X389129Y206248D01*
X389129Y160957D01*
X385958Y153301D01*
X354699Y122042D01*
X347043Y118871D01*
X317757Y118871D01*
X310915Y121705D01*
X310913Y121706D01*
X310911Y121707D01*
X310748Y121753D01*
X310580Y121801D01*
X310578Y121801D01*
X310576Y121802D01*
X310332Y121821D01*
X308594Y121821D01*
X302022Y124543D01*
X296993Y129572D01*
X294271Y136144D01*
X294271Y143256D01*
X296993Y149828D01*
X302022Y154857D01*
X308594Y157579D01*
X310332Y157579D01*
X310334Y157579D01*
X310336Y157579D01*
X310513Y157600D01*
X310678Y157619D01*
X310680Y157619D01*
X310682Y157620D01*
X310915Y157695D01*
X317757Y160529D01*
X333641Y160529D01*
X333767Y160543D01*
X333893Y160550D01*
X333940Y160563D01*
X333988Y160569D01*
X334107Y160611D01*
X334228Y160646D01*
X334270Y160670D01*
X334316Y160686D01*
X334422Y160755D01*
X334532Y160816D01*
X334579Y160856D01*
X334609Y160875D01*
X334642Y160910D01*
X334719Y160975D01*
X347025Y173281D01*
X347104Y173380D01*
X347188Y173474D01*
X347212Y173517D01*
X347242Y173554D01*
X347296Y173669D01*
X347357Y173779D01*
X347370Y173826D01*
X347391Y173870D01*
X347417Y173993D01*
X347452Y174115D01*
X347457Y174175D01*
X347464Y174210D01*
X347463Y174258D01*
X347471Y174359D01*
X347471Y181559D01*
X347460Y181659D01*
X347458Y181760D01*
X347440Y181832D01*
X347431Y181906D01*
X347398Y182000D01*
X347373Y182098D01*
X347339Y182164D01*
X347314Y182234D01*
X347259Y182318D01*
X347213Y182407D01*
X347165Y182464D01*
X347125Y182527D01*
X347053Y182596D01*
X346988Y182673D01*
X346928Y182717D01*
X346874Y182769D01*
X346788Y182820D01*
X346707Y182880D01*
X346639Y182909D01*
X346575Y182948D01*
X346479Y182978D01*
X346387Y183018D01*
X346314Y183031D01*
X346243Y183054D01*
X346143Y183062D01*
X346044Y183080D01*
X345970Y183076D01*
X345896Y183082D01*
X345796Y183067D01*
X345696Y183062D01*
X345625Y183041D01*
X345551Y183030D01*
X345458Y182993D01*
X345361Y182965D01*
X345296Y182929D01*
X345227Y182901D01*
X345145Y182844D01*
X345057Y182795D01*
X344981Y182730D01*
X344941Y182702D01*
X344917Y182676D01*
X344871Y182637D01*
X341778Y179543D01*
X335206Y176821D01*
X308594Y176821D01*
X302022Y179543D01*
X296993Y184572D01*
X296648Y185406D01*
X296586Y185517D01*
X296532Y185631D01*
X296502Y185668D01*
X296479Y185711D01*
X296394Y185804D01*
X296315Y185903D01*
X296277Y185933D01*
X296244Y185969D01*
X296140Y186041D01*
X296041Y186119D01*
X295987Y186147D01*
X295958Y186167D01*
X295913Y186185D01*
X295823Y186230D01*
X295132Y186517D01*
X275848Y205801D01*
X275749Y205880D01*
X275655Y205964D01*
X275613Y205988D01*
X275575Y206018D01*
X275461Y206072D01*
X275350Y206133D01*
X275303Y206146D01*
X275260Y206167D01*
X275136Y206193D01*
X275015Y206228D01*
X274954Y206233D01*
X274919Y206240D01*
X274871Y206239D01*
X274771Y206247D01*
X213980Y206247D01*
X210432Y207717D01*
X209098Y209051D01*
X208999Y209130D01*
X208905Y209214D01*
X208863Y209238D01*
X208825Y209268D01*
X208711Y209322D01*
X208600Y209383D01*
X208553Y209396D01*
X208510Y209417D01*
X208386Y209443D01*
X208265Y209478D01*
X208204Y209483D01*
X208169Y209490D01*
X208121Y209489D01*
X208021Y209497D01*
X201531Y209497D01*
X201431Y209486D01*
X201331Y209484D01*
X201259Y209466D01*
X201185Y209457D01*
X201091Y209424D01*
X200993Y209399D01*
X200927Y209365D01*
X200857Y209340D01*
X200773Y209285D01*
X200683Y209239D01*
X200627Y209191D01*
X200564Y209151D01*
X200494Y209079D01*
X200418Y209014D01*
X200374Y208954D01*
X200322Y208900D01*
X200270Y208814D01*
X200211Y208733D01*
X200181Y208665D01*
X200143Y208601D01*
X200112Y208505D01*
X200073Y208413D01*
X200060Y208340D01*
X200037Y208269D01*
X200029Y208169D01*
X200011Y208070D01*
X200015Y207996D01*
X200009Y207922D01*
X200024Y207822D01*
X200029Y207722D01*
X200050Y207651D01*
X200061Y207577D01*
X200098Y207484D01*
X200125Y207387D01*
X200162Y207322D01*
X200189Y207253D01*
X200247Y207171D01*
X200296Y207083D01*
X200361Y207007D01*
X200388Y206967D01*
X200415Y206943D01*
X200454Y206897D01*
X211383Y195968D01*
X212853Y192420D01*
X212853Y190025D01*
X212861Y189949D01*
X212860Y189872D01*
X212881Y189776D01*
X212893Y189678D01*
X212918Y189606D01*
X212935Y189532D01*
X212977Y189443D01*
X213010Y189350D01*
X213052Y189286D01*
X213084Y189217D01*
X213146Y189140D01*
X213199Y189057D01*
X213254Y189004D01*
X213302Y188945D01*
X213379Y188884D01*
X213450Y188815D01*
X213515Y188776D01*
X213575Y188729D01*
X213708Y188661D01*
X213749Y188636D01*
X213767Y188631D01*
X213793Y188617D01*
X215305Y187991D01*
X217591Y185705D01*
X218829Y182717D01*
X218829Y166483D01*
X218497Y165683D01*
X218463Y165561D01*
X218420Y165442D01*
X218415Y165394D01*
X218402Y165348D01*
X218395Y165222D01*
X218381Y165096D01*
X218387Y165048D01*
X218385Y165000D01*
X218407Y164875D01*
X218422Y164750D01*
X218441Y164692D01*
X218447Y164657D01*
X218466Y164613D01*
X218497Y164517D01*
X218829Y163717D01*
X218829Y147483D01*
X217591Y144495D01*
X215305Y142209D01*
X212317Y140971D01*
X194083Y140971D01*
X191095Y142209D01*
X188809Y144495D01*
X188597Y145007D01*
X188560Y145074D01*
X188532Y145145D01*
X188475Y145226D01*
X188428Y145312D01*
X188376Y145368D01*
X188333Y145431D01*
X188260Y145497D01*
X188193Y145570D01*
X188131Y145613D01*
X188074Y145664D01*
X187988Y145712D01*
X187907Y145768D01*
X187836Y145796D01*
X187769Y145833D01*
X187674Y145860D01*
X187583Y145896D01*
X187507Y145907D01*
X187433Y145928D01*
X187285Y145940D01*
X187238Y145947D01*
X187219Y145945D01*
X187190Y145947D01*
X185408Y145947D01*
X185259Y145930D01*
X185108Y145918D01*
X185085Y145910D01*
X185061Y145907D01*
X184920Y145857D01*
X184777Y145811D01*
X184756Y145798D01*
X184733Y145790D01*
X184607Y145708D01*
X184478Y145631D01*
X184461Y145614D01*
X184440Y145601D01*
X184336Y145493D01*
X184228Y145388D01*
X184215Y145368D01*
X184198Y145350D01*
X184121Y145221D01*
X184040Y145095D01*
X184032Y145072D01*
X184019Y145051D01*
X183974Y144908D01*
X183923Y144766D01*
X183921Y144742D01*
X183913Y144719D01*
X183901Y144570D01*
X183884Y144420D01*
X183887Y144396D01*
X183885Y144372D01*
X183908Y144223D01*
X183925Y144074D01*
X183934Y144046D01*
X183937Y144027D01*
X183954Y143983D01*
X184000Y143841D01*
X185129Y141117D01*
X185129Y112883D01*
X183891Y109895D01*
X181605Y107609D01*
X178617Y106371D01*
X145383Y106371D01*
X142395Y107609D01*
X140109Y109895D01*
X138871Y112883D01*
X138871Y141117D01*
X140109Y144105D01*
X142395Y146391D01*
X145383Y147629D01*
X149443Y147629D01*
X149543Y147640D01*
X149643Y147642D01*
X149715Y147660D01*
X149789Y147669D01*
X149883Y147702D01*
X149981Y147727D01*
X150047Y147761D01*
X150117Y147786D01*
X150201Y147841D01*
X150291Y147887D01*
X150347Y147935D01*
X150410Y147975D01*
X150480Y148047D01*
X150556Y148112D01*
X150600Y148172D01*
X150652Y148226D01*
X150704Y148312D01*
X150763Y148393D01*
X150793Y148461D01*
X150831Y148525D01*
X150862Y148621D01*
X150901Y148713D01*
X150914Y148786D01*
X150937Y148857D01*
X150945Y148957D01*
X150963Y149056D01*
X150959Y149130D01*
X150965Y149204D01*
X150950Y149304D01*
X150945Y149404D01*
X150924Y149475D01*
X150913Y149549D01*
X150876Y149642D01*
X150849Y149739D01*
X150812Y149804D01*
X150785Y149873D01*
X150727Y149955D01*
X150678Y150043D01*
X150613Y150119D01*
X150586Y150159D01*
X150559Y150183D01*
X150520Y150229D01*
X147521Y153228D01*
X146051Y156776D01*
X146051Y182215D01*
X146043Y182291D01*
X146044Y182368D01*
X146023Y182464D01*
X146011Y182562D01*
X145986Y182634D01*
X145969Y182708D01*
X145927Y182797D01*
X145894Y182890D01*
X145852Y182954D01*
X145820Y183023D01*
X145758Y183100D01*
X145705Y183183D01*
X145650Y183236D01*
X145602Y183295D01*
X145525Y183356D01*
X145454Y183425D01*
X145389Y183464D01*
X145329Y183511D01*
X145196Y183579D01*
X145155Y183604D01*
X145137Y183609D01*
X145111Y183623D01*
X143657Y184225D01*
X141371Y186511D01*
X140133Y189499D01*
X140133Y209801D01*
X141072Y212067D01*
X141107Y212189D01*
X141149Y212308D01*
X141154Y212356D01*
X141168Y212402D01*
X141174Y212528D01*
X141188Y212654D01*
X141182Y212702D01*
X141185Y212750D01*
X141162Y212875D01*
X141147Y213000D01*
X141128Y213058D01*
X141122Y213093D01*
X141103Y213137D01*
X141072Y213233D01*
X140133Y215499D01*
X140133Y242301D01*
X141371Y245289D01*
X143657Y247575D01*
X146645Y248813D01*
X164763Y248813D01*
X165714Y248419D01*
X165716Y248418D01*
X165718Y248417D01*
X165885Y248370D01*
X166049Y248323D01*
X166051Y248323D01*
X166053Y248322D01*
X166297Y248303D01*
X166624Y248303D01*
X166650Y248306D01*
X166676Y248304D01*
X166823Y248326D01*
X166970Y248343D01*
X166995Y248351D01*
X167021Y248355D01*
X167159Y248410D01*
X167298Y248460D01*
X167320Y248474D01*
X167345Y248484D01*
X167466Y248569D01*
X167591Y248649D01*
X167609Y248668D01*
X167631Y248683D01*
X167730Y248793D01*
X167833Y248900D01*
X167847Y248922D01*
X167864Y248942D01*
X167936Y249072D01*
X168012Y249199D01*
X168020Y249224D01*
X168033Y249247D01*
X168073Y249390D01*
X168118Y249531D01*
X168120Y249557D01*
X168128Y249582D01*
X168147Y249826D01*
X168147Y281320D01*
X169617Y284868D01*
X185032Y300283D01*
X188580Y301753D01*
X191387Y301753D01*
X191512Y301767D01*
X191638Y301774D01*
X191685Y301787D01*
X191733Y301793D01*
X191852Y301835D01*
X191973Y301870D01*
X192015Y301894D01*
X192061Y301910D01*
X192167Y301979D01*
X192277Y302040D01*
X192324Y302080D01*
X192354Y302099D01*
X192387Y302134D01*
X192464Y302199D01*
X197097Y306833D01*
X209303Y306833D01*
X217933Y298203D01*
X217933Y286061D01*
X217944Y285961D01*
X217946Y285861D01*
X217964Y285789D01*
X217973Y285715D01*
X218006Y285621D01*
X218031Y285523D01*
X218065Y285457D01*
X218090Y285387D01*
X218145Y285303D01*
X218191Y285213D01*
X218239Y285157D01*
X218279Y285094D01*
X218351Y285024D01*
X218416Y284948D01*
X218476Y284904D01*
X218530Y284852D01*
X218616Y284800D01*
X218697Y284741D01*
X218765Y284711D01*
X218829Y284673D01*
X218925Y284642D01*
X219017Y284603D01*
X219090Y284590D01*
X219161Y284567D01*
X219261Y284559D01*
X219360Y284541D01*
X219434Y284545D01*
X219508Y284539D01*
X219608Y284554D01*
X219708Y284559D01*
X219779Y284580D01*
X219853Y284591D01*
X219946Y284628D01*
X220043Y284655D01*
X220108Y284692D01*
X220177Y284719D01*
X220259Y284777D01*
X220347Y284826D01*
X220423Y284891D01*
X220463Y284918D01*
X220487Y284945D01*
X220533Y284984D01*
X225225Y289676D01*
X225304Y289775D01*
X225388Y289869D01*
X225412Y289911D01*
X225442Y289949D01*
X225496Y290063D01*
X225557Y290174D01*
X225570Y290221D01*
X225591Y290264D01*
X225617Y290388D01*
X225652Y290509D01*
X225657Y290570D01*
X225664Y290605D01*
X225663Y290653D01*
X225671Y290753D01*
X225671Y297017D01*
X226909Y300005D01*
X229195Y302291D01*
X232183Y303529D01*
X250417Y303529D01*
X253405Y302291D01*
X254447Y301249D01*
X254526Y301186D01*
X254598Y301117D01*
X254662Y301078D01*
X254720Y301032D01*
X254811Y300989D01*
X254897Y300938D01*
X254968Y300915D01*
X255035Y300883D01*
X255133Y300862D01*
X255229Y300832D01*
X255303Y300826D01*
X255376Y300810D01*
X255476Y300812D01*
X255576Y300804D01*
X255650Y300815D01*
X255724Y300816D01*
X255821Y300840D01*
X255921Y300855D01*
X255990Y300883D01*
X256062Y300901D01*
X256151Y300947D01*
X256245Y300984D01*
X256306Y301026D01*
X256372Y301061D01*
X256448Y301126D01*
X256531Y301183D01*
X256581Y301238D01*
X256637Y301286D01*
X256697Y301367D01*
X256764Y301442D01*
X256800Y301507D01*
X256845Y301567D01*
X256884Y301659D01*
X256933Y301747D01*
X256953Y301818D01*
X256983Y301887D01*
X257000Y301985D01*
X257028Y302082D01*
X257036Y302182D01*
X257044Y302230D01*
X257042Y302265D01*
X257047Y302326D01*
X257047Y357520D01*
X258517Y361068D01*
X290832Y393383D01*
X294380Y394853D01*
X295887Y394853D01*
X296013Y394867D01*
X296139Y394874D01*
X296186Y394887D01*
X296234Y394893D01*
X296353Y394935D01*
X296474Y394970D01*
X296516Y394994D01*
X296562Y395010D01*
X296668Y395079D01*
X296778Y395140D01*
X296825Y395180D01*
X296855Y395199D01*
X296888Y395234D01*
X296965Y395299D01*
X302022Y400357D01*
X307700Y402709D01*
X307744Y402733D01*
X307792Y402750D01*
X307896Y402818D01*
X308005Y402878D01*
X308042Y402912D01*
X308085Y402939D01*
X308171Y403029D01*
X308263Y403112D01*
X308292Y403154D01*
X308327Y403190D01*
X308391Y403297D01*
X308461Y403399D01*
X308480Y403446D01*
X308506Y403489D01*
X308544Y403607D01*
X308589Y403723D01*
X308597Y403773D01*
X308612Y403821D01*
X308622Y403945D01*
X308640Y404068D01*
X308636Y404118D01*
X308640Y404168D01*
X308621Y404291D01*
X308611Y404415D01*
X308596Y404463D01*
X308588Y404513D01*
X308542Y404628D01*
X308504Y404747D01*
X308478Y404790D01*
X308459Y404837D01*
X308389Y404939D01*
X308324Y405045D01*
X308289Y405082D01*
X308261Y405123D01*
X308168Y405206D01*
X308082Y405295D01*
X308039Y405323D01*
X308002Y405356D01*
X307893Y405416D01*
X307788Y405484D01*
X307741Y405501D01*
X307697Y405525D01*
X307577Y405559D01*
X307460Y405600D01*
X307410Y405606D01*
X307361Y405620D01*
X307118Y405639D01*
X99060Y405639D01*
X99034Y405636D01*
X99008Y405638D01*
X98861Y405616D01*
X98714Y405599D01*
X98689Y405591D01*
X98663Y405587D01*
X98525Y405532D01*
X98386Y405482D01*
X98364Y405468D01*
X98339Y405458D01*
X98218Y405373D01*
X98093Y405293D01*
X98075Y405274D01*
X98053Y405259D01*
X97954Y405149D01*
X97851Y405042D01*
X97837Y405020D01*
X97820Y405000D01*
X97748Y404870D01*
X97672Y404743D01*
X97664Y404718D01*
X97651Y404695D01*
X97611Y404552D01*
X97566Y404411D01*
X97564Y404385D01*
X97556Y404360D01*
X97537Y404116D01*
X97537Y250336D01*
X97540Y250310D01*
X97538Y250284D01*
X97560Y250137D01*
X97577Y249990D01*
X97585Y249965D01*
X97589Y249939D01*
X97644Y249801D01*
X97694Y249662D01*
X97708Y249640D01*
X97718Y249615D01*
X97803Y249494D01*
X97883Y249369D01*
X97902Y249351D01*
X97917Y249329D01*
X98027Y249230D01*
X98134Y249127D01*
X98156Y249113D01*
X98176Y249096D01*
X98306Y249024D01*
X98433Y248948D01*
X98458Y248940D01*
X98481Y248927D01*
X98624Y248887D01*
X98765Y248842D01*
X98791Y248840D01*
X98816Y248832D01*
X99060Y248813D01*
X107355Y248813D01*
X110343Y247575D01*
X112629Y245289D01*
X113867Y242301D01*
X113867Y215499D01*
X112928Y213233D01*
X112893Y213111D01*
X112851Y212992D01*
X112846Y212944D01*
X112832Y212898D01*
X112826Y212772D01*
X112812Y212646D01*
X112818Y212598D01*
X112815Y212550D01*
X112838Y212425D01*
X112853Y212300D01*
X112872Y212242D01*
X112878Y212207D01*
X112897Y212163D01*
X112928Y212067D01*
X113867Y209801D01*
X113867Y189499D01*
X112629Y186511D01*
X110343Y184225D01*
X107355Y182987D01*
X99060Y182987D01*
X99034Y182984D01*
X99008Y182986D01*
X98861Y182964D01*
X98714Y182947D01*
X98689Y182939D01*
X98663Y182935D01*
X98525Y182880D01*
X98386Y182830D01*
X98364Y182816D01*
X98339Y182806D01*
X98218Y182721D01*
X98093Y182641D01*
X98075Y182622D01*
X98053Y182607D01*
X97954Y182497D01*
X97851Y182390D01*
X97837Y182368D01*
X97820Y182348D01*
X97748Y182218D01*
X97672Y182091D01*
X97664Y182066D01*
X97651Y182043D01*
X97611Y181900D01*
X97566Y181759D01*
X97564Y181733D01*
X97556Y181708D01*
X97537Y181464D01*
X97537Y143564D01*
X97540Y143538D01*
X97538Y143512D01*
X97560Y143365D01*
X97577Y143218D01*
X97585Y143193D01*
X97589Y143167D01*
X97644Y143029D01*
X97694Y142890D01*
X97708Y142868D01*
X97718Y142843D01*
X97803Y142722D01*
X97883Y142597D01*
X97902Y142579D01*
X97917Y142557D01*
X98027Y142458D01*
X98134Y142355D01*
X98156Y142341D01*
X98176Y142324D01*
X98306Y142252D01*
X98433Y142176D01*
X98458Y142168D01*
X98481Y142155D01*
X98624Y142115D01*
X98765Y142070D01*
X98791Y142068D01*
X98816Y142060D01*
X99060Y142041D01*
X107335Y142041D01*
X107981Y141868D01*
X108560Y141533D01*
X109033Y141060D01*
X109368Y140481D01*
X109541Y139835D01*
X109541Y130047D01*
X99060Y130047D01*
X99034Y130044D01*
X99008Y130046D01*
X98861Y130024D01*
X98714Y130007D01*
X98689Y129998D01*
X98663Y129995D01*
X98525Y129940D01*
X98386Y129890D01*
X98364Y129876D01*
X98339Y129866D01*
X98218Y129781D01*
X98093Y129701D01*
X98075Y129682D01*
X98053Y129667D01*
X97954Y129557D01*
X97851Y129450D01*
X97837Y129428D01*
X97820Y129408D01*
X97748Y129278D01*
X97672Y129151D01*
X97664Y129126D01*
X97651Y129103D01*
X97631Y129031D01*
X93016Y129031D01*
X92958Y129023D01*
X92900Y129024D01*
X92818Y129003D01*
X92735Y128991D01*
X92681Y128967D01*
X92625Y128953D01*
X92552Y128910D01*
X92475Y128875D01*
X92431Y128837D01*
X92380Y128807D01*
X92323Y128746D01*
X92258Y128691D01*
X92226Y128643D01*
X92186Y128600D01*
X92147Y128525D01*
X92101Y128455D01*
X92083Y128399D01*
X92056Y128347D01*
X92045Y128279D01*
X92015Y128184D01*
X92012Y128084D01*
X92001Y128016D01*
X92001Y126999D01*
X91999Y126999D01*
X91999Y128016D01*
X91991Y128074D01*
X91992Y128132D01*
X91971Y128214D01*
X91959Y128297D01*
X91935Y128351D01*
X91921Y128407D01*
X91878Y128480D01*
X91843Y128557D01*
X91805Y128601D01*
X91775Y128652D01*
X91714Y128709D01*
X91659Y128774D01*
X91611Y128806D01*
X91568Y128846D01*
X91493Y128885D01*
X91423Y128931D01*
X91367Y128949D01*
X91315Y128976D01*
X91247Y128987D01*
X91152Y129017D01*
X91052Y129020D01*
X90984Y129031D01*
X74459Y129031D01*
X74459Y139700D01*
X74451Y139758D01*
X74453Y139816D01*
X74431Y139898D01*
X74419Y139982D01*
X74396Y140035D01*
X74381Y140091D01*
X74338Y140164D01*
X74303Y140241D01*
X74265Y140286D01*
X74236Y140336D01*
X74174Y140394D01*
X74120Y140458D01*
X74071Y140490D01*
X74028Y140530D01*
X73953Y140569D01*
X73883Y140616D01*
X73827Y140633D01*
X73775Y140660D01*
X73707Y140671D01*
X73612Y140701D01*
X73512Y140704D01*
X73444Y140715D01*
X11176Y140715D01*
X11118Y140707D01*
X11060Y140709D01*
X10978Y140687D01*
X10894Y140675D01*
X10841Y140651D01*
X10785Y140637D01*
X10712Y140594D01*
X10635Y140559D01*
X10590Y140521D01*
X10540Y140491D01*
X10482Y140430D01*
X10418Y140375D01*
X10386Y140327D01*
X10346Y140284D01*
X10307Y140209D01*
X10260Y140139D01*
X10243Y140083D01*
X10216Y140031D01*
X10205Y139963D01*
X10175Y139868D01*
X10172Y139768D01*
X10161Y139700D01*
X10161Y11176D01*
X10169Y11118D01*
X10167Y11060D01*
X10189Y10978D01*
X10201Y10894D01*
X10224Y10841D01*
X10239Y10785D01*
X10282Y10712D01*
X10317Y10635D01*
X10355Y10590D01*
X10384Y10540D01*
X10446Y10482D01*
X10500Y10418D01*
X10549Y10386D01*
X10592Y10346D01*
X10667Y10307D01*
X10737Y10260D01*
X10793Y10243D01*
X10845Y10216D01*
X10913Y10205D01*
X11008Y10175D01*
X11108Y10172D01*
X11176Y10161D01*
X141111Y10161D01*
X141211Y10172D01*
G37*
G36*
X64144Y151389D02*
X64144Y151389D01*
X64173Y151386D01*
X64284Y151409D01*
X64396Y151425D01*
X64423Y151437D01*
X64452Y151442D01*
X64552Y151495D01*
X64655Y151541D01*
X64678Y151560D01*
X64704Y151573D01*
X64786Y151651D01*
X64872Y151725D01*
X64889Y151749D01*
X64910Y151769D01*
X64967Y151867D01*
X65030Y151961D01*
X65039Y151989D01*
X65054Y152014D01*
X65082Y152124D01*
X65116Y152232D01*
X65117Y152262D01*
X65124Y152290D01*
X65120Y152403D01*
X65123Y152516D01*
X65116Y152545D01*
X65115Y152574D01*
X65080Y152682D01*
X65051Y152791D01*
X65036Y152817D01*
X65027Y152845D01*
X64982Y152908D01*
X64906Y153036D01*
X64860Y153079D01*
X64832Y153118D01*
X62203Y155747D01*
X59689Y161816D01*
X59689Y168384D01*
X62203Y174453D01*
X66847Y179097D01*
X72916Y181611D01*
X74422Y181611D01*
X74480Y181619D01*
X74538Y181617D01*
X74620Y181639D01*
X74704Y181651D01*
X74757Y181674D01*
X74813Y181689D01*
X74886Y181732D01*
X74963Y181767D01*
X75008Y181805D01*
X75058Y181834D01*
X75116Y181896D01*
X75180Y181950D01*
X75212Y181999D01*
X75252Y182042D01*
X75291Y182117D01*
X75338Y182187D01*
X75355Y182243D01*
X75382Y182295D01*
X75393Y182363D01*
X75423Y182458D01*
X75426Y182558D01*
X75437Y182626D01*
X75437Y189375D01*
X76376Y191641D01*
X76405Y191753D01*
X76439Y191862D01*
X76440Y191890D01*
X76447Y191917D01*
X76444Y192031D01*
X76447Y192146D01*
X76440Y192173D01*
X76439Y192201D01*
X76404Y192310D01*
X76375Y192421D01*
X76361Y192445D01*
X76352Y192472D01*
X76288Y192567D01*
X76230Y192666D01*
X76209Y192685D01*
X76194Y192708D01*
X76106Y192782D01*
X76022Y192860D01*
X75998Y192873D01*
X75976Y192891D01*
X75872Y192937D01*
X75769Y192990D01*
X75745Y192994D01*
X75717Y193006D01*
X75453Y193043D01*
X75438Y193045D01*
X60196Y193045D01*
X60138Y193037D01*
X60080Y193039D01*
X59998Y193017D01*
X59914Y193005D01*
X59861Y192982D01*
X59805Y192967D01*
X59732Y192924D01*
X59655Y192889D01*
X59610Y192851D01*
X59560Y192822D01*
X59502Y192760D01*
X59438Y192706D01*
X59406Y192657D01*
X59366Y192614D01*
X59327Y192539D01*
X59280Y192469D01*
X59263Y192413D01*
X59236Y192361D01*
X59225Y192293D01*
X59195Y192198D01*
X59192Y192098D01*
X59181Y192030D01*
X59181Y181989D01*
X58407Y180122D01*
X56978Y178693D01*
X55111Y177919D01*
X40089Y177919D01*
X38222Y178693D01*
X36654Y180261D01*
X36592Y180307D01*
X36536Y180362D01*
X36479Y180392D01*
X36427Y180431D01*
X36354Y180459D01*
X36286Y180496D01*
X36222Y180510D01*
X36161Y180533D01*
X36084Y180539D01*
X36008Y180555D01*
X35952Y180550D01*
X35878Y180556D01*
X35751Y180531D01*
X35674Y180523D01*
X35434Y180459D01*
X30631Y180459D01*
X30631Y189484D01*
X30623Y189542D01*
X30624Y189600D01*
X30603Y189682D01*
X30591Y189765D01*
X30567Y189819D01*
X30553Y189875D01*
X30510Y189948D01*
X30475Y190025D01*
X30437Y190069D01*
X30407Y190120D01*
X30346Y190177D01*
X30291Y190242D01*
X30243Y190274D01*
X30200Y190314D01*
X30125Y190353D01*
X30055Y190399D01*
X29999Y190417D01*
X29947Y190444D01*
X29879Y190455D01*
X29784Y190485D01*
X29684Y190488D01*
X29616Y190499D01*
X28599Y190499D01*
X28599Y190501D01*
X29616Y190501D01*
X29674Y190509D01*
X29732Y190508D01*
X29814Y190529D01*
X29897Y190541D01*
X29951Y190565D01*
X30007Y190579D01*
X30080Y190622D01*
X30157Y190657D01*
X30201Y190695D01*
X30252Y190725D01*
X30309Y190786D01*
X30374Y190841D01*
X30406Y190889D01*
X30446Y190932D01*
X30485Y191007D01*
X30531Y191077D01*
X30549Y191133D01*
X30576Y191185D01*
X30587Y191253D01*
X30617Y191348D01*
X30620Y191448D01*
X30631Y191516D01*
X30631Y200541D01*
X35434Y200541D01*
X35674Y200477D01*
X35751Y200467D01*
X35826Y200448D01*
X35891Y200450D01*
X35956Y200442D01*
X36033Y200455D01*
X36110Y200457D01*
X36172Y200477D01*
X36236Y200487D01*
X36307Y200521D01*
X36381Y200545D01*
X36426Y200577D01*
X36494Y200609D01*
X36591Y200694D01*
X36654Y200739D01*
X38269Y202354D01*
X38357Y202406D01*
X38378Y202428D01*
X38402Y202444D01*
X38475Y202531D01*
X38553Y202613D01*
X38566Y202639D01*
X38585Y202662D01*
X38631Y202765D01*
X38683Y202866D01*
X38689Y202894D01*
X38701Y202921D01*
X38716Y203034D01*
X38738Y203145D01*
X38736Y203174D01*
X38740Y203203D01*
X38723Y203315D01*
X38714Y203428D01*
X38703Y203455D01*
X38699Y203484D01*
X38652Y203587D01*
X38612Y203693D01*
X38594Y203717D01*
X38582Y203743D01*
X38509Y203829D01*
X38440Y203920D01*
X38417Y203938D01*
X38398Y203960D01*
X38331Y204001D01*
X38260Y204054D01*
X36654Y205661D01*
X36592Y205707D01*
X36536Y205762D01*
X36479Y205792D01*
X36427Y205831D01*
X36354Y205859D01*
X36286Y205896D01*
X36222Y205910D01*
X36161Y205933D01*
X36084Y205939D01*
X36008Y205955D01*
X35952Y205950D01*
X35878Y205956D01*
X35751Y205931D01*
X35674Y205923D01*
X35434Y205859D01*
X30631Y205859D01*
X30631Y214884D01*
X30623Y214942D01*
X30624Y215000D01*
X30603Y215082D01*
X30591Y215165D01*
X30567Y215219D01*
X30553Y215275D01*
X30510Y215348D01*
X30475Y215425D01*
X30437Y215469D01*
X30407Y215520D01*
X30346Y215577D01*
X30291Y215642D01*
X30243Y215674D01*
X30200Y215714D01*
X30125Y215753D01*
X30055Y215799D01*
X29999Y215817D01*
X29947Y215844D01*
X29879Y215855D01*
X29784Y215885D01*
X29684Y215888D01*
X29616Y215899D01*
X28599Y215899D01*
X28599Y215901D01*
X29616Y215901D01*
X29674Y215909D01*
X29732Y215908D01*
X29814Y215929D01*
X29897Y215941D01*
X29951Y215965D01*
X30007Y215979D01*
X30080Y216022D01*
X30157Y216057D01*
X30201Y216095D01*
X30252Y216125D01*
X30309Y216186D01*
X30374Y216241D01*
X30406Y216289D01*
X30446Y216332D01*
X30485Y216407D01*
X30531Y216477D01*
X30549Y216533D01*
X30576Y216585D01*
X30587Y216653D01*
X30617Y216748D01*
X30620Y216848D01*
X30631Y216916D01*
X30631Y225941D01*
X35434Y225941D01*
X35674Y225877D01*
X35751Y225867D01*
X35826Y225848D01*
X35891Y225850D01*
X35956Y225842D01*
X36033Y225855D01*
X36110Y225857D01*
X36172Y225877D01*
X36236Y225887D01*
X36307Y225921D01*
X36381Y225945D01*
X36426Y225977D01*
X36494Y226009D01*
X36591Y226094D01*
X36654Y226139D01*
X38222Y227707D01*
X40089Y228481D01*
X55111Y228481D01*
X56978Y227707D01*
X58407Y226278D01*
X59181Y224411D01*
X59181Y214080D01*
X59193Y213994D01*
X59196Y213906D01*
X59213Y213854D01*
X59221Y213799D01*
X59256Y213719D01*
X59283Y213636D01*
X59311Y213596D01*
X59337Y213539D01*
X59433Y213426D01*
X59478Y213362D01*
X59788Y213052D01*
X59858Y212999D01*
X59922Y212940D01*
X59971Y212914D01*
X60016Y212881D01*
X60097Y212850D01*
X60175Y212810D01*
X60223Y212802D01*
X60281Y212780D01*
X60429Y212768D01*
X60506Y212755D01*
X74020Y212755D01*
X74049Y212759D01*
X74078Y212756D01*
X74189Y212779D01*
X74301Y212795D01*
X74328Y212807D01*
X74357Y212812D01*
X74457Y212864D01*
X74560Y212911D01*
X74583Y212930D01*
X74609Y212943D01*
X74691Y213021D01*
X74777Y213094D01*
X74794Y213119D01*
X74815Y213139D01*
X74872Y213237D01*
X74935Y213331D01*
X74944Y213359D01*
X74959Y213384D01*
X74987Y213494D01*
X75021Y213602D01*
X75022Y213632D01*
X75029Y213660D01*
X75025Y213773D01*
X75028Y213886D01*
X75021Y213915D01*
X75020Y213944D01*
X74985Y214052D01*
X74956Y214161D01*
X74941Y214187D01*
X74932Y214215D01*
X74887Y214278D01*
X74811Y214406D01*
X74765Y214449D01*
X74737Y214488D01*
X50255Y238970D01*
X50186Y239022D01*
X50122Y239082D01*
X50072Y239108D01*
X50028Y239141D01*
X49946Y239172D01*
X49869Y239212D01*
X49821Y239220D01*
X49763Y239242D01*
X49615Y239254D01*
X49537Y239267D01*
X32214Y239267D01*
X29787Y240273D01*
X27786Y242273D01*
X27273Y242786D01*
X27226Y242821D01*
X27186Y242864D01*
X27113Y242906D01*
X27046Y242957D01*
X26991Y242978D01*
X26941Y243008D01*
X26859Y243028D01*
X26780Y243058D01*
X26722Y243063D01*
X26665Y243078D01*
X26581Y243075D01*
X26497Y243082D01*
X26440Y243070D01*
X26381Y243069D01*
X26301Y243043D01*
X26218Y243026D01*
X26166Y242999D01*
X26111Y242981D01*
X26055Y242941D01*
X25966Y242895D01*
X25894Y242826D01*
X25837Y242786D01*
X25752Y242700D01*
X21403Y240899D01*
X16697Y240899D01*
X12348Y242700D01*
X11894Y243155D01*
X11870Y243173D01*
X11851Y243195D01*
X11757Y243258D01*
X11667Y243326D01*
X11639Y243336D01*
X11615Y243353D01*
X11507Y243387D01*
X11401Y243427D01*
X11372Y243430D01*
X11344Y243438D01*
X11230Y243441D01*
X11118Y243451D01*
X11089Y243445D01*
X11060Y243446D01*
X10950Y243417D01*
X10839Y243395D01*
X10813Y243381D01*
X10785Y243374D01*
X10687Y243316D01*
X10587Y243264D01*
X10565Y243244D01*
X10540Y243229D01*
X10463Y243146D01*
X10381Y243068D01*
X10366Y243043D01*
X10346Y243021D01*
X10294Y242920D01*
X10237Y242823D01*
X10230Y242794D01*
X10216Y242768D01*
X10203Y242691D01*
X10167Y242547D01*
X10169Y242485D01*
X10161Y242437D01*
X10161Y152400D01*
X10169Y152342D01*
X10167Y152284D01*
X10189Y152202D01*
X10201Y152119D01*
X10224Y152065D01*
X10239Y152009D01*
X10282Y151936D01*
X10317Y151859D01*
X10355Y151814D01*
X10384Y151764D01*
X10446Y151706D01*
X10500Y151642D01*
X10549Y151610D01*
X10592Y151570D01*
X10667Y151531D01*
X10737Y151485D01*
X10793Y151467D01*
X10845Y151440D01*
X10913Y151429D01*
X11008Y151399D01*
X11108Y151396D01*
X11176Y151385D01*
X64115Y151385D01*
X64144Y151389D01*
G37*
%LPC*%
G36*
X308594Y312321D02*
X308594Y312321D01*
X302022Y315043D01*
X296993Y320072D01*
X294271Y326644D01*
X294271Y333756D01*
X296993Y340328D01*
X302022Y345357D01*
X308594Y348079D01*
X335206Y348079D01*
X341778Y345357D01*
X346807Y340328D01*
X349529Y333756D01*
X349529Y326644D01*
X346807Y320072D01*
X341778Y315043D01*
X335206Y312321D01*
X308594Y312321D01*
G37*
%LPD*%
%LPC*%
G36*
X76666Y111959D02*
X76666Y111959D01*
X76019Y112132D01*
X75440Y112467D01*
X74967Y112940D01*
X74632Y113519D01*
X74459Y114166D01*
X74459Y124969D01*
X89969Y124969D01*
X89969Y111959D01*
X76666Y111959D01*
G37*
%LPD*%
%LPC*%
G36*
X94031Y124969D02*
X94031Y124969D01*
X97633Y124969D01*
X97644Y124941D01*
X97694Y124802D01*
X97708Y124780D01*
X97718Y124755D01*
X97803Y124634D01*
X97883Y124509D01*
X97902Y124491D01*
X97917Y124469D01*
X98027Y124370D01*
X98134Y124267D01*
X98156Y124253D01*
X98176Y124236D01*
X98306Y124164D01*
X98433Y124088D01*
X98458Y124080D01*
X98481Y124067D01*
X98624Y124027D01*
X98765Y123982D01*
X98791Y123980D01*
X98816Y123972D01*
X99060Y123953D01*
X109541Y123953D01*
X109541Y114166D01*
X109368Y113519D01*
X109033Y112940D01*
X108560Y112467D01*
X107981Y112132D01*
X107904Y112112D01*
X107334Y111959D01*
X94031Y111959D01*
X94031Y124969D01*
G37*
%LPD*%
%LPC*%
G36*
X324947Y87747D02*
X324947Y87747D01*
X324947Y96991D01*
X332617Y96991D01*
X334528Y96688D01*
X336368Y96090D01*
X338092Y95212D01*
X339657Y94075D01*
X341025Y92707D01*
X342162Y91142D01*
X343040Y89418D01*
X343583Y87747D01*
X324947Y87747D01*
G37*
%LPD*%
%LPC*%
G36*
X300217Y87747D02*
X300217Y87747D01*
X300760Y89418D01*
X301638Y91142D01*
X302775Y92707D01*
X304143Y94075D01*
X305708Y95212D01*
X307432Y96090D01*
X309272Y96688D01*
X311183Y96991D01*
X318853Y96991D01*
X318853Y87747D01*
X300217Y87747D01*
G37*
%LPD*%
%LPC*%
G36*
X324947Y72409D02*
X324947Y72409D01*
X324947Y81653D01*
X343583Y81653D01*
X343040Y79982D01*
X342162Y78258D01*
X341025Y76693D01*
X339657Y75325D01*
X338092Y74188D01*
X336368Y73310D01*
X334528Y72712D01*
X332617Y72409D01*
X324947Y72409D01*
G37*
%LPD*%
%LPC*%
G36*
X311183Y72409D02*
X311183Y72409D01*
X309272Y72712D01*
X307432Y73310D01*
X305708Y74188D01*
X304143Y75325D01*
X302775Y76693D01*
X301638Y78258D01*
X300760Y79982D01*
X300217Y81653D01*
X318853Y81653D01*
X318853Y72409D01*
X311183Y72409D01*
G37*
%LPD*%
%LPC*%
G36*
X19559Y217931D02*
X19559Y217931D01*
X19559Y223734D01*
X19732Y224381D01*
X20067Y224960D01*
X20540Y225433D01*
X21119Y225768D01*
X21766Y225941D01*
X26569Y225941D01*
X26569Y217931D01*
X19559Y217931D01*
G37*
%LPD*%
%LPC*%
G36*
X19559Y192531D02*
X19559Y192531D01*
X19559Y198334D01*
X19732Y198981D01*
X20067Y199560D01*
X20540Y200033D01*
X21119Y200368D01*
X21766Y200541D01*
X26569Y200541D01*
X26569Y192531D01*
X19559Y192531D01*
G37*
%LPD*%
%LPC*%
G36*
X21766Y205859D02*
X21766Y205859D01*
X21119Y206032D01*
X20540Y206367D01*
X20067Y206840D01*
X19732Y207419D01*
X19559Y208066D01*
X19559Y213869D01*
X26569Y213869D01*
X26569Y205859D01*
X21766Y205859D01*
G37*
%LPD*%
%LPC*%
G36*
X21766Y180459D02*
X21766Y180459D01*
X21119Y180632D01*
X20540Y180967D01*
X20067Y181440D01*
X19732Y182019D01*
X19559Y182666D01*
X19559Y188469D01*
X26569Y188469D01*
X26569Y180459D01*
X21766Y180459D01*
G37*
%LPD*%
%LPC*%
G36*
X321899Y84699D02*
X321899Y84699D01*
X321899Y84701D01*
X321901Y84701D01*
X321901Y84699D01*
X321899Y84699D01*
G37*
%LPD*%
D10*
X162000Y127000D03*
X92000Y127000D03*
D11*
X203200Y174600D03*
X203200Y155600D03*
D12*
X203200Y292100D03*
X203200Y241300D03*
D13*
X47600Y190500D03*
X28600Y190500D03*
D11*
X241300Y288900D03*
X241300Y269900D03*
X241300Y231800D03*
X241300Y250800D03*
D13*
X28600Y215900D03*
X47600Y215900D03*
D14*
X155704Y193150D03*
X155704Y199650D03*
X155704Y206150D03*
X155704Y212650D03*
X155704Y219150D03*
X155704Y225650D03*
X155704Y232150D03*
X155704Y238650D03*
X98296Y238650D03*
X98296Y232150D03*
X98296Y225650D03*
X98296Y219150D03*
X98296Y212650D03*
X98296Y206150D03*
X98296Y199650D03*
X98296Y193150D03*
D15*
X127000Y215900D03*
D16*
X312150Y194700D02*
X331650Y194700D01*
X331650Y139700D02*
X312150Y139700D01*
X312150Y84700D02*
X331650Y84700D01*
X331650Y385200D02*
X312150Y385200D01*
X312150Y330200D02*
X331650Y330200D01*
X331650Y275200D02*
X312150Y275200D01*
D17*
X127000Y215900D02*
X127000Y162000D01*
X92000Y127000D01*
D18*
X321900Y84700D02*
X338700Y84700D01*
X355600Y101600D01*
X321900Y84700D02*
X309000Y84700D01*
X292100Y101600D01*
X300600Y106000D02*
X321900Y84700D01*
X300600Y106000D02*
X283800Y106000D01*
D19*
X228600Y203200D02*
X215900Y203200D01*
D17*
X203234Y212650D02*
X155704Y212650D01*
X212684Y203200D02*
X215900Y203200D01*
X212684Y203200D02*
X203234Y212650D01*
X155704Y212650D02*
X130250Y212650D01*
X127000Y215900D01*
D20*
X321900Y84700D02*
X364100Y84700D01*
X368300Y88900D01*
D21*
X245110Y41910D03*
D18*
X28600Y184200D02*
X28600Y190500D01*
X28600Y184200D02*
X25400Y181000D01*
X25400Y114300D01*
D17*
X79450Y212650D02*
X98296Y212650D01*
X50800Y241300D02*
X12700Y241300D01*
X50800Y241300D02*
X79450Y212650D01*
X162000Y152400D02*
X162000Y127000D01*
X155704Y158696D02*
X155704Y193150D01*
X155704Y158696D02*
X162000Y152400D01*
X187300Y155600D02*
X203200Y155600D01*
X187300Y155600D02*
X177800Y165100D01*
X177800Y190500D01*
X168650Y199650D01*
X155704Y199650D01*
X203200Y190500D02*
X203200Y174600D01*
X203200Y190500D02*
X187550Y206150D01*
X155704Y206150D01*
X215900Y215900D02*
X279400Y215900D01*
X300600Y194700D02*
X321900Y194700D01*
X300600Y194700D02*
X279400Y215900D01*
X215900Y215900D02*
X212650Y219150D01*
X155704Y219150D01*
D22*
X98296Y193150D02*
X87740Y193150D01*
X82550Y187960D01*
X82550Y171450D01*
D23*
X76200Y165100D03*
D22*
X82550Y171450D01*
D21*
X166370Y43180D03*
D17*
X187550Y225650D02*
X203200Y241300D01*
X187550Y225650D02*
X155704Y225650D01*
X231800Y241300D02*
X241300Y231800D01*
X231800Y241300D02*
X203200Y241300D01*
D18*
X368300Y241300D02*
X368300Y228600D01*
X368300Y165100D01*
D17*
X278500Y231800D02*
X241300Y231800D01*
X278500Y231800D02*
X321900Y275200D01*
D24*
X469900Y228600D03*
D20*
X368300Y241300D02*
X368300Y165100D01*
X342900Y139700D02*
X321900Y139700D01*
X342900Y139700D02*
X368300Y165100D01*
X368300Y228600D02*
X469900Y228600D01*
X347100Y275200D02*
X321900Y275200D01*
X347100Y275200D02*
X368300Y254000D01*
X368300Y241300D01*
D17*
X175150Y238650D02*
X155704Y238650D01*
X175150Y238650D02*
X177800Y241300D01*
X190500Y292100D02*
X203200Y292100D01*
X190500Y292100D02*
X177800Y279400D01*
X177800Y241300D01*
X181350Y232150D02*
X155704Y232150D01*
X238100Y288900D02*
X241300Y288900D01*
X190500Y241300D02*
X181350Y232150D01*
X190500Y241300D02*
X190500Y254000D01*
X203200Y266700D02*
X215900Y266700D01*
X238100Y288900D01*
X203200Y266700D02*
X190500Y254000D01*
X241300Y250800D02*
X241300Y269900D01*
X257200Y269900D01*
X266700Y279400D01*
X266700Y355600D01*
X296300Y385200D01*
X321900Y385200D01*
X98296Y199650D02*
X56750Y199650D01*
X47600Y190500D01*
X57350Y206150D02*
X98296Y206150D01*
X57350Y206150D02*
X47600Y215900D01*
X79416Y219150D02*
X98296Y219150D01*
X79416Y219150D02*
X52694Y245872D01*
X33528Y245872D02*
X25400Y254000D01*
X33528Y245872D02*
X52694Y245872D01*
X25400Y254000D02*
X20320Y254000D01*
X19050Y252730D01*
D25*
X19050Y252730D03*
D17*
X79382Y225650D02*
X98296Y225650D01*
X54588Y250444D02*
X38100Y250444D01*
X19022Y269522D01*
X54588Y250444D02*
X79382Y225650D01*
X19022Y269522D02*
X19022Y278130D01*
D26*
X19022Y278130D03*
D17*
X79347Y232150D02*
X98296Y232150D01*
X79347Y232150D02*
X56481Y255016D01*
X53340Y255016D01*
D26*
X17780Y300990D03*
D17*
X43180Y265176D02*
X53340Y255016D01*
X43180Y275590D02*
X17780Y300990D01*
X43180Y275590D02*
X43180Y265176D01*
X79313Y238650D02*
X98296Y238650D01*
D26*
X17780Y325120D03*
D17*
X50800Y292100D01*
X50800Y267163D01*
X79313Y238650D01*
M02*
