G04 EAGLE Gerber RS-274X export*
G75*
%MOMM*%
%FSLAX34Y34*%
%LPD*%
%IN*%
%IPPOS*%
%AMOC8*
5,1,8,0,0,1.08239X$1,22.5*%
G01*
%ADD10C,0.254000*%


D10*
X0Y0D02*
X533200Y0D01*
X533200Y415800D01*
X0Y415800D01*
X0Y0D01*
X596311Y121700D02*
X595135Y121777D01*
X593966Y121931D01*
X592810Y122161D01*
X591672Y122466D01*
X590556Y122845D01*
X589467Y123296D01*
X588410Y123817D01*
X587390Y124406D01*
X586410Y125061D01*
X585475Y125778D01*
X584589Y126555D01*
X583755Y127389D01*
X582978Y128275D01*
X582261Y129210D01*
X581606Y130190D01*
X581017Y131210D01*
X580496Y132267D01*
X580045Y133356D01*
X579666Y134472D01*
X579361Y135610D01*
X579131Y136766D01*
X578977Y137935D01*
X578900Y139111D01*
X578900Y140289D01*
X578977Y141465D01*
X579131Y142634D01*
X579361Y143790D01*
X579666Y144928D01*
X580045Y146044D01*
X580496Y147133D01*
X581017Y148190D01*
X581606Y149210D01*
X582261Y150190D01*
X582978Y151125D01*
X583755Y152011D01*
X584589Y152845D01*
X585475Y153622D01*
X586410Y154339D01*
X587390Y154994D01*
X588410Y155583D01*
X589467Y156104D01*
X590556Y156555D01*
X591672Y156934D01*
X592810Y157239D01*
X593966Y157469D01*
X595135Y157623D01*
X596311Y157700D01*
X597489Y157700D01*
X598665Y157623D01*
X599834Y157469D01*
X600990Y157239D01*
X602128Y156934D01*
X603244Y156555D01*
X604333Y156104D01*
X605390Y155583D01*
X606410Y154994D01*
X607390Y154339D01*
X608325Y153622D01*
X609211Y152845D01*
X610045Y152011D01*
X610822Y151125D01*
X611539Y150190D01*
X612194Y149210D01*
X612783Y148190D01*
X613304Y147133D01*
X613755Y146044D01*
X614134Y144928D01*
X614439Y143790D01*
X614669Y142634D01*
X614823Y141465D01*
X614900Y140289D01*
X614900Y139111D01*
X614823Y137935D01*
X614669Y136766D01*
X614439Y135610D01*
X614134Y134472D01*
X613755Y133356D01*
X613304Y132267D01*
X612783Y131210D01*
X612194Y130190D01*
X611539Y129210D01*
X610822Y128275D01*
X610045Y127389D01*
X609211Y126555D01*
X608325Y125778D01*
X607390Y125061D01*
X606410Y124406D01*
X605390Y123817D01*
X604333Y123296D01*
X603244Y122845D01*
X602128Y122466D01*
X600990Y122161D01*
X599834Y121931D01*
X598665Y121777D01*
X597489Y121700D01*
X596311Y121700D01*
X596311Y312200D02*
X595135Y312277D01*
X593966Y312431D01*
X592810Y312661D01*
X591672Y312966D01*
X590556Y313345D01*
X589467Y313796D01*
X588410Y314317D01*
X587390Y314906D01*
X586410Y315561D01*
X585475Y316278D01*
X584589Y317055D01*
X583755Y317889D01*
X582978Y318775D01*
X582261Y319710D01*
X581606Y320690D01*
X581017Y321710D01*
X580496Y322767D01*
X580045Y323856D01*
X579666Y324972D01*
X579361Y326110D01*
X579131Y327266D01*
X578977Y328435D01*
X578900Y329611D01*
X578900Y330789D01*
X578977Y331965D01*
X579131Y333134D01*
X579361Y334290D01*
X579666Y335428D01*
X580045Y336544D01*
X580496Y337633D01*
X581017Y338690D01*
X581606Y339710D01*
X582261Y340690D01*
X582978Y341625D01*
X583755Y342511D01*
X584589Y343345D01*
X585475Y344122D01*
X586410Y344839D01*
X587390Y345494D01*
X588410Y346083D01*
X589467Y346604D01*
X590556Y347055D01*
X591672Y347434D01*
X592810Y347739D01*
X593966Y347969D01*
X595135Y348123D01*
X596311Y348200D01*
X597489Y348200D01*
X598665Y348123D01*
X599834Y347969D01*
X600990Y347739D01*
X602128Y347434D01*
X603244Y347055D01*
X604333Y346604D01*
X605390Y346083D01*
X606410Y345494D01*
X607390Y344839D01*
X608325Y344122D01*
X609211Y343345D01*
X610045Y342511D01*
X610822Y341625D01*
X611539Y340690D01*
X612194Y339710D01*
X612783Y338690D01*
X613304Y337633D01*
X613755Y336544D01*
X614134Y335428D01*
X614439Y334290D01*
X614669Y333134D01*
X614823Y331965D01*
X614900Y330789D01*
X614900Y329611D01*
X614823Y328435D01*
X614669Y327266D01*
X614439Y326110D01*
X614134Y324972D01*
X613755Y323856D01*
X613304Y322767D01*
X612783Y321710D01*
X612194Y320690D01*
X611539Y319710D01*
X610822Y318775D01*
X610045Y317889D01*
X609211Y317055D01*
X608325Y316278D01*
X607390Y315561D01*
X606410Y314906D01*
X605390Y314317D01*
X604333Y313796D01*
X603244Y313345D01*
X602128Y312966D01*
X600990Y312661D01*
X599834Y312431D01*
X598665Y312277D01*
X597489Y312200D01*
X596311Y312200D01*
M02*
